<svg xmlns="http://www.w3.org/2000/svg" xmlns:xlink="http://www.w3.org/1999/xlink" width="500" zoomAndPan="magnify" viewBox="0 0 375 374.999991" height="500" preserveAspectRatio="xMidYMid meet" version="1.0"><defs><g/><clipPath id="aabd0a78f7"><path d="M 230 201 L 281.734375 201 L 281.734375 251.980469 L 230 251.980469 Z M 230 201 " clip-rule="nonzero"/></clipPath><clipPath id="1947d65775"><path d="M 113 197 L 168 197 L 168 251.980469 L 113 251.980469 Z M 113 197 " clip-rule="nonzero"/></clipPath><clipPath id="a9ee92506b"><path d="M 93.484375 118 L 151 118 L 151 160 L 93.484375 160 Z M 93.484375 118 " clip-rule="nonzero"/></clipPath></defs><rect x="-37.5" width="450" fill="#ffffff" y="-37.499999" height="449.999989" fill-opacity="1"/><rect x="-37.5" width="450" fill="#ffffff" y="-37.499999" height="449.999989" fill-opacity="1"/><path fill="#f19763" d="M 219.363281 144.257812 C 218.230469 146.128906 216.554688 147.042969 214.679688 145.90625 L 169.34375 126.964844 C 167.464844 125.828125 166.105469 124.277344 167.578125 120.894531 L 167.800781 120.402344 C 169.597656 117.265625 172.753906 117.207031 174.628906 118.34375 L 219.136719 140.808594 C 221.011719 141.945312 220.507812 142.386719 219.363281 144.257812 " fill-opacity="1" fill-rule="nonzero"/><path fill="#f19763" d="M 219.136719 140.808594 C 219.136719 140.808594 227.871094 142.921875 228.054688 147.722656 C 228.085938 148.46875 228.152344 150.457031 226.867188 150.457031 C 226.867188 150.457031 225.410156 150.519531 225.164062 148.207031 C 224.914062 145.890625 222.34375 145.488281 220.632812 145.484375 C 218.917969 145.484375 217.507812 147.679688 214.679688 145.90625 L 219.136719 140.808594 " fill-opacity="1" fill-rule="nonzero"/><path fill="#7b7979" d="M 119.5 187.421875 L 123.277344 186.921875 L 114.882812 161.300781 C 114.5625 160.320312 113.503906 159.785156 112.527344 160.105469 C 111.539062 160.425781 111 161.484375 111.320312 162.464844 L 119.5 187.421875 " fill-opacity="1" fill-rule="nonzero"/><path fill="#7b7979" d="M 140.222656 187.421875 L 144 186.921875 L 135.609375 161.300781 C 135.289062 160.320312 134.234375 159.785156 133.246094 160.105469 C 132.261719 160.425781 131.730469 161.484375 132.050781 162.464844 L 140.222656 187.421875 " fill-opacity="1" fill-rule="nonzero"/><path fill="#a7a5a6" d="M 146.183594 161.539062 C 146.183594 162.574219 145.34375 163.410156 144.308594 163.410156 L 101.398438 163.410156 C 100.363281 163.410156 99.527344 162.574219 99.527344 161.539062 C 99.527344 160.507812 100.363281 159.667969 101.398438 159.667969 L 144.308594 159.667969 C 145.34375 159.667969 146.183594 160.507812 146.183594 161.539062 " fill-opacity="1" fill-rule="nonzero"/><g clip-path="url(#aabd0a78f7)"><path fill="#5b1f15" d="M 281.742188 226.46875 C 281.742188 240.527344 270.316406 251.925781 256.222656 251.925781 C 242.132812 251.925781 230.710938 240.527344 230.710938 226.46875 C 230.710938 212.414062 242.132812 201.015625 256.222656 201.015625 C 270.316406 201.015625 281.742188 212.414062 281.742188 226.46875 " fill-opacity="1" fill-rule="nonzero"/></g><path fill="#d5d1b0" d="M 268.1875 226.46875 C 268.1875 233.0625 262.828125 238.40625 256.222656 238.40625 C 249.613281 238.40625 244.261719 233.0625 244.261719 226.46875 C 244.261719 219.878906 249.613281 214.535156 256.222656 214.535156 C 262.828125 214.535156 268.1875 219.878906 268.1875 226.46875 " fill-opacity="1" fill-rule="nonzero"/><path fill="#5b1f15" d="M 262.851562 226.46875 C 262.851562 230.121094 259.882812 233.082031 256.222656 233.082031 C 252.566406 233.082031 249.597656 230.121094 249.597656 226.46875 C 249.597656 222.820312 252.566406 219.863281 256.222656 219.863281 C 259.882812 219.863281 262.851562 222.820312 262.851562 226.46875 " fill-opacity="1" fill-rule="nonzero"/><path fill="#f68712" d="M 138.847656 188.589844 C 138.847656 189.488281 138.113281 190.222656 137.210938 190.222656 L 112.550781 190.222656 C 111.644531 190.222656 110.917969 189.488281 110.917969 188.589844 L 110.917969 182.050781 C 110.917969 181.148438 111.644531 180.417969 112.550781 180.417969 L 137.210938 180.417969 C 138.113281 180.417969 138.847656 181.148438 138.847656 182.050781 L 138.847656 188.589844 " fill-opacity="1" fill-rule="nonzero"/><path fill="#af211f" d="M 213.558594 230.25 C 213.558594 232.222656 211.957031 233.816406 209.984375 233.816406 C 208.011719 233.816406 206.410156 232.222656 206.410156 230.25 L 206.410156 223.574219 C 206.410156 221.609375 208.011719 220.007812 209.984375 220.007812 C 211.957031 220.007812 213.558594 221.609375 213.558594 223.574219 L 213.558594 230.25 " fill-opacity="1" fill-rule="nonzero"/><path fill="#5b1f15" d="M 187.207031 231.550781 C 186.011719 231.550781 185.042969 230.582031 185.042969 229.394531 C 185.042969 228.199219 186.011719 227.238281 187.207031 227.238281 L 210.230469 227.238281 C 211.425781 227.238281 212.390625 228.199219 212.390625 229.394531 C 212.390625 230.582031 211.425781 231.550781 210.230469 231.550781 L 187.207031 231.550781 " fill-opacity="1" fill-rule="nonzero"/><path fill="#f8a10e" d="M 244.550781 149.980469 C 244.550781 156.492188 239.257812 161.769531 232.730469 161.769531 C 226.199219 161.769531 220.90625 156.492188 220.90625 149.980469 C 220.90625 143.464844 226.199219 138.1875 232.730469 138.1875 C 239.257812 138.1875 244.550781 143.464844 244.550781 149.980469 " fill-opacity="1" fill-rule="nonzero"/><path fill="#5b1f15" d="M 146.625 189.140625 C 146.625 190.257812 145.609375 191.167969 144.359375 191.167969 L 118.515625 191.167969 C 117.257812 191.167969 116.25 190.257812 116.25 189.140625 L 116.25 181.039062 C 116.25 179.917969 117.257812 179.015625 118.515625 179.015625 L 144.359375 179.015625 C 145.609375 179.015625 146.625 179.917969 146.625 181.039062 L 146.625 189.140625 " fill-opacity="1" fill-rule="nonzero"/><path fill="#dc2b28" d="M 152.570312 190.71875 C 152.570312 192.167969 151.523438 193.339844 150.234375 193.339844 L 123.320312 193.339844 C 122.023438 193.339844 120.980469 192.167969 120.980469 190.71875 L 120.980469 180.222656 C 120.980469 178.777344 122.023438 177.601562 123.320312 177.601562 L 150.234375 177.601562 C 151.523438 177.601562 152.570312 178.777344 152.570312 180.222656 L 152.570312 190.71875 " fill-opacity="1" fill-rule="nonzero"/><g clip-path="url(#1947d65775)"><path fill="#5b1f15" d="M 167.902344 224.671875 C 167.902344 239.722656 155.675781 251.925781 140.589844 251.925781 C 125.496094 251.925781 113.269531 239.722656 113.269531 224.671875 C 113.269531 209.621094 125.496094 197.417969 140.589844 197.417969 C 155.675781 197.417969 167.902344 209.621094 167.902344 224.671875 " fill-opacity="1" fill-rule="nonzero"/></g><path fill="#d5d1b0" d="M 153.398438 224.671875 C 153.398438 231.730469 147.660156 237.453125 140.589844 237.453125 C 133.511719 237.453125 127.777344 231.730469 127.777344 224.671875 C 127.777344 217.609375 133.511719 211.890625 140.589844 211.890625 C 147.660156 211.890625 153.398438 217.609375 153.398438 224.671875 " fill-opacity="1" fill-rule="nonzero"/><path fill="#5b1f15" d="M 147.683594 224.671875 C 147.683594 228.582031 144.503906 231.75 140.589844 231.75 C 136.664062 231.75 133.496094 228.582031 133.496094 224.671875 C 133.496094 220.761719 136.664062 217.59375 140.589844 217.59375 C 144.503906 217.59375 147.683594 220.761719 147.683594 224.671875 " fill-opacity="1" fill-rule="nonzero"/><path fill="#ef2f2c" d="M 279.933594 215.222656 C 279.941406 215.109375 279.949219 214.988281 279.949219 214.875 C 279.949219 206.621094 269.65625 199.933594 256.960938 199.933594 C 244.261719 199.933594 233.96875 206.621094 233.96875 214.875 C 233.96875 214.988281 233.980469 215.109375 233.980469 215.222656 L 279.933594 215.222656 " fill-opacity="1" fill-rule="nonzero"/><path fill="#ef2f2c" d="M 242.855469 191.714844 C 239.144531 180.359375 229.773438 145.285156 229.773438 145.285156 L 221.648438 148.101562 C 225.886719 166.441406 227.65625 173.492188 231.191406 197.003906 C 233.953125 215.375 222.882812 217.222656 212.808594 217.222656 C 204.851562 217.222656 195.136719 217.222656 195.136719 217.222656 C 166.574219 217.222656 178.257812 174.261719 179.78125 169.054688 L 148.429688 169.054688 L 159.789062 201.351562 C 156.960938 227.132812 185.234375 225.332031 185.234375 225.332031 L 226.417969 225.332031 C 250.097656 225.332031 245.882812 200.980469 242.855469 191.714844 " fill-opacity="1" fill-rule="nonzero"/><path fill="#ef2f2c" d="M 237.125 136.699219 C 226.460938 136.757812 217.835938 142.679688 217.835938 149.980469 C 217.835938 157.277344 226.460938 163.203125 237.125 163.257812 L 237.125 136.699219 " fill-opacity="1" fill-rule="nonzero"/><path fill="#ef2f2c" d="M 258.1875 202.171875 C 256.839844 198.601562 245.65625 169.902344 243.53125 165.0625 C 242.566406 162.875 239.570312 162.90625 239.570312 162.90625 L 230.292969 162.90625 L 240.175781 202.171875 L 258.1875 202.171875 " fill-opacity="1" fill-rule="nonzero"/><path fill="#ef2f2c" d="M 171.207031 206.320312 C 171.207031 206.132812 171.21875 205.945312 171.21875 205.757812 C 171.21875 192.566406 164.640625 176.679688 145.511719 176.679688 C 123.117188 176.679688 115.4375 192.566406 115.4375 205.757812 C 115.4375 205.945312 115.445312 206.132812 115.453125 206.320312 L 171.207031 206.320312 " fill-opacity="1" fill-rule="nonzero"/><path fill="#c82724" d="M 148.480469 176.679688 C 147.644531 176.679688 146.832031 176.707031 146.03125 176.753906 C 163.691406 177.886719 169.867188 193.347656 169.902344 206.320312 L 174.175781 206.320312 C 174.179688 206.132812 174.191406 205.945312 174.191406 205.757812 C 174.191406 192.566406 167.613281 176.679688 148.480469 176.679688 " fill-opacity="1" fill-rule="nonzero"/><path fill="#921b18" d="M 156.359375 201.996094 C 156.359375 202.535156 155.914062 202.976562 155.375 202.976562 L 128.152344 202.976562 C 127.613281 202.976562 127.171875 202.535156 127.171875 201.996094 C 127.171875 201.453125 127.613281 201.015625 128.152344 201.015625 L 155.375 201.015625 C 155.914062 201.015625 156.359375 201.453125 156.359375 201.996094 " fill-opacity="1" fill-rule="nonzero"/><path fill="#921b18" d="M 156.359375 198.398438 C 156.359375 198.9375 155.914062 199.375 155.375 199.375 L 128.152344 199.375 C 127.613281 199.375 127.171875 198.9375 127.171875 198.398438 C 127.171875 197.855469 127.613281 197.417969 128.152344 197.417969 L 155.375 197.417969 C 155.914062 197.417969 156.359375 197.855469 156.359375 198.398438 " fill-opacity="1" fill-rule="nonzero"/><path fill="#921b18" d="M 156.359375 194.796875 C 156.359375 195.339844 155.914062 195.777344 155.375 195.777344 L 128.152344 195.777344 C 127.613281 195.777344 127.171875 195.339844 127.171875 194.796875 C 127.171875 194.257812 127.613281 193.820312 128.152344 193.820312 L 155.375 193.820312 C 155.914062 193.820312 156.359375 194.257812 156.359375 194.796875 " fill-opacity="1" fill-rule="nonzero"/><path fill="#921b18" d="M 156.359375 191.199219 C 156.359375 191.742188 155.914062 192.179688 155.375 192.179688 L 128.152344 192.179688 C 127.613281 192.179688 127.171875 191.742188 127.171875 191.199219 C 127.171875 190.65625 127.613281 190.222656 128.152344 190.222656 L 155.375 190.222656 C 155.914062 190.222656 156.359375 190.65625 156.359375 191.199219 " fill-opacity="1" fill-rule="nonzero"/><path fill="#5b1f15" d="M 182.933594 172.800781 C 182.933594 175.453125 180.777344 177.601562 178.121094 177.601562 L 137.96875 177.601562 C 135.3125 177.601562 133.15625 175.453125 133.15625 172.800781 C 133.15625 170.148438 135.3125 168 137.96875 168 L 178.121094 168 C 180.777344 168 182.933594 170.148438 182.933594 172.800781 " fill-opacity="1" fill-rule="nonzero"/><path fill="#f8a10e" d="M 252.398438 187.277344 L 250.054688 187.277344 C 249.152344 187.277344 248.421875 188.011719 248.421875 188.910156 L 248.421875 195.445312 C 248.421875 196.347656 249.152344 197.078125 250.054688 197.078125 L 256.222656 197.078125 C 255.179688 194.382812 253.828125 190.933594 252.398438 187.277344 " fill-opacity="1" fill-rule="nonzero"/><path fill="#47170f" d="M 227.871094 151.976562 C 227.425781 151.976562 227.011719 151.695312 226.867188 151.25 C 226.8125 151.101562 222.015625 136.507812 219.1875 129.980469 C 218.207031 127.722656 215.777344 124.121094 210.507812 125.386719 C 209.941406 125.519531 209.367188 125.171875 209.234375 124.601562 C 209.089844 124.035156 209.445312 123.464844 210.011719 123.328125 C 217.234375 121.601562 220.351562 127.335938 221.132812 129.136719 C 224.003906 135.757812 228.679688 149.988281 228.878906 150.589844 C 229.0625 151.144531 228.753906 151.742188 228.203125 151.925781 C 228.09375 151.960938 227.984375 151.976562 227.871094 151.976562 " fill-opacity="1" fill-rule="nonzero"/><path fill="#47170f" d="M 204.414062 133.253906 C 208.984375 133.21875 212.683594 129.515625 212.683594 124.945312 C 212.683594 120.378906 208.984375 116.675781 204.414062 116.636719 L 204.414062 133.253906 " fill-opacity="1" fill-rule="nonzero"/><g clip-path="url(#a9ee92506b)"><path fill="#f8a10e" d="M 150.679688 155.945312 C 150.679688 158.003906 149.007812 159.667969 146.945312 159.667969 L 97.214844 159.667969 C 95.152344 159.667969 93.484375 158.003906 93.484375 155.945312 L 93.484375 122.425781 C 93.484375 120.363281 95.152344 118.699219 97.214844 118.699219 L 146.945312 118.699219 C 149.007812 118.699219 150.679688 120.363281 150.679688 122.425781 L 150.679688 155.945312 " fill-opacity="1" fill-rule="nonzero"/></g><path fill="#5b1f15" d="M 202.683594 160.730469 C 202.683594 164.640625 199.507812 167.8125 195.585938 167.8125 L 165.890625 167.8125 C 161.964844 167.8125 159.539062 164.640625 159.539062 160.730469 C 159.539062 156.820312 159.539062 153.652344 159.539062 153.652344 L 195.585938 153.652344 C 199.507812 153.652344 202.683594 156.820312 202.683594 160.730469 " fill-opacity="1" fill-rule="nonzero"/><path fill="#ef2f2c" d="M 180.371094 153.652344 C 180.371094 153.652344 183.421875 130.828125 184.246094 123.199219 C 184.589844 119.957031 185.136719 115.367188 180.917969 114.867188 L 168.371094 113.753906 C 162.414062 113.226562 162.171875 124.125 161.882812 127.371094 L 159.542969 153.695312 L 180.371094 153.652344 " fill-opacity="1" fill-rule="nonzero"/><path fill="#42150e" d="M 208.683594 204.9375 L 193.226562 164.09375 C 191.363281 160.652344 192.652344 156.355469 196.109375 154.5 C 199.554688 152.644531 203.859375 153.933594 205.722656 157.371094 L 221.277344 203.480469 L 208.683594 204.9375 " fill-opacity="1" fill-rule="nonzero"/><path fill="#b08046" d="M 221.691406 202.261719 L 221.691406 208.082031 C 227.019531 208.320312 231.238281 211.515625 231.238281 215.421875 L 231.238281 215.46875 L 206.804688 215.46875 L 206.804688 202.261719 L 221.691406 202.261719 " fill-opacity="1" fill-rule="nonzero"/><path fill="#47170f" d="M 231.238281 215.109375 L 231.238281 217.015625 L 229.035156 217.015625 L 229.035156 216.480469 L 228.183594 216.480469 L 228.183594 217.015625 L 225.988281 217.015625 L 225.988281 216.480469 L 225.128906 216.480469 L 225.128906 217.015625 L 222.933594 217.015625 L 222.933594 216.480469 L 222.078125 216.480469 L 222.078125 217.015625 L 219.875 217.015625 L 219.875 216.480469 L 219.015625 216.480469 L 219.015625 217.015625 L 206.804688 217.015625 L 206.804688 215.109375 L 231.238281 215.109375 " fill-opacity="1" fill-rule="nonzero"/><path fill="#47170f" d="M 219.871094 204.296875 L 221.691406 204.296875 L 221.691406 205.394531 L 219.871094 205.394531 C 219.566406 205.394531 219.320312 205.148438 219.320312 204.84375 C 219.320312 204.542969 219.566406 204.296875 219.871094 204.296875 " fill-opacity="1" fill-rule="nonzero"/><path fill="#47170f" d="M 219.871094 206.15625 L 221.691406 206.15625 L 221.691406 207.253906 L 219.871094 207.253906 C 219.566406 207.253906 219.320312 207.003906 219.320312 206.703125 C 219.320312 206.398438 219.566406 206.15625 219.871094 206.15625 " fill-opacity="1" fill-rule="nonzero"/><path fill="#47170f" d="M 222.710938 210.714844 C 222.585938 210.996094 222.257812 211.117188 221.980469 211 C 221.703125 210.875 221.585938 210.550781 221.703125 210.273438 L 222.636719 208.15625 C 223.023438 208.199219 223.398438 208.261719 223.761719 208.332031 L 222.710938 210.714844 " fill-opacity="1" fill-rule="nonzero"/><path fill="#47170f" d="M 220.734375 209.46875 C 220.503906 209.664062 220.152344 209.640625 219.957031 209.410156 C 219.757812 209.179688 219.785156 208.832031 220.015625 208.636719 L 220.667969 208.074219 C 220.796875 208.070312 220.925781 208.066406 221.0625 208.066406 C 221.480469 208.066406 221.890625 208.089844 222.296875 208.125 L 220.734375 209.46875 " fill-opacity="1" fill-rule="nonzero"/><path fill="#47170f" d="M 224.679688 211.21875 C 224.558594 211.496094 224.230469 211.621094 223.957031 211.5 C 223.679688 211.378906 223.550781 211.054688 223.675781 210.777344 L 224.660156 208.546875 C 225.023438 208.644531 225.375 208.757812 225.714844 208.882812 L 224.679688 211.21875 " fill-opacity="1" fill-rule="nonzero"/><path fill="#47170f" d="M 226.652344 211.722656 C 226.53125 212 226.203125 212.125 225.929688 212.003906 C 225.648438 211.882812 225.523438 211.554688 225.644531 211.28125 L 226.550781 209.234375 C 226.890625 209.390625 227.21875 209.558594 227.523438 209.742188 L 226.652344 211.722656 " fill-opacity="1" fill-rule="nonzero"/><path fill="#863022" d="M 206.460938 202.21875 C 206.460938 202.53125 206.71875 202.789062 207.035156 202.789062 L 221.722656 202.789062 C 222.042969 202.789062 222.296875 202.53125 222.296875 202.21875 C 222.296875 201.902344 222.042969 201.644531 221.722656 201.644531 L 207.035156 201.644531 C 206.71875 201.644531 206.460938 201.902344 206.460938 202.21875 " fill-opacity="1" fill-rule="nonzero"/><path fill="#5b1f15" d="M 204.921875 204.9375 L 189.464844 164.09375 C 187.605469 160.652344 188.894531 156.355469 192.339844 154.5 C 195.792969 152.644531 200.097656 153.933594 201.957031 157.371094 L 217.511719 203.480469 L 204.921875 204.9375 " fill-opacity="1" fill-rule="nonzero"/><path fill="#bf935b" d="M 218.074219 203.359375 L 218.074219 209.179688 C 223.402344 209.417969 227.625 212.609375 227.625 216.515625 L 227.625 216.566406 L 203.1875 216.566406 L 203.1875 203.359375 L 218.074219 203.359375 " fill-opacity="1" fill-rule="nonzero"/><path fill="#5b1f15" d="M 227.625 216.203125 L 227.625 218.113281 L 225.421875 218.113281 L 225.421875 217.578125 L 224.566406 217.578125 L 224.566406 218.113281 L 222.367188 218.113281 L 222.367188 217.578125 L 221.511719 217.578125 L 221.511719 218.113281 L 219.308594 218.113281 L 219.308594 217.578125 L 218.457031 217.578125 L 218.457031 218.113281 L 216.257812 218.113281 L 216.257812 217.578125 L 215.402344 217.578125 L 215.402344 218.113281 L 203.1875 218.113281 L 203.1875 216.203125 L 227.625 216.203125 " fill-opacity="1" fill-rule="nonzero"/><path fill="#5b1f15" d="M 216.253906 205.394531 L 218.074219 205.394531 L 218.074219 206.488281 L 216.253906 206.488281 C 215.953125 206.488281 215.707031 206.246094 215.707031 205.941406 C 215.707031 205.640625 215.953125 205.394531 216.253906 205.394531 " fill-opacity="1" fill-rule="nonzero"/><path fill="#5b1f15" d="M 216.253906 207.25 L 218.074219 207.25 L 218.074219 208.347656 L 216.253906 208.347656 C 215.953125 208.347656 215.707031 208.101562 215.707031 207.800781 C 215.707031 207.496094 215.953125 207.25 216.253906 207.25 " fill-opacity="1" fill-rule="nonzero"/><path fill="#5b1f15" d="M 219.089844 211.8125 C 218.96875 212.089844 218.644531 212.21875 218.367188 212.09375 C 218.089844 211.972656 217.964844 211.644531 218.085938 211.371094 L 219.023438 209.253906 C 219.410156 209.296875 219.777344 209.355469 220.148438 209.429688 L 219.089844 211.8125 " fill-opacity="1" fill-rule="nonzero"/><path fill="#5b1f15" d="M 217.113281 210.5625 C 216.882812 210.761719 216.535156 210.734375 216.34375 210.507812 C 216.140625 210.277344 216.167969 209.929688 216.394531 209.734375 L 217.050781 209.171875 C 217.175781 209.167969 217.308594 209.164062 217.441406 209.164062 C 217.859375 209.164062 218.269531 209.1875 218.675781 209.222656 L 217.113281 210.5625 " fill-opacity="1" fill-rule="nonzero"/><path fill="#5b1f15" d="M 221.0625 212.316406 C 220.9375 212.59375 220.617188 212.722656 220.339844 212.597656 C 220.0625 212.472656 219.933594 212.152344 220.054688 211.875 L 221.046875 209.640625 C 221.402344 209.742188 221.757812 209.851562 222.097656 209.980469 L 221.0625 212.316406 " fill-opacity="1" fill-rule="nonzero"/><path fill="#5b1f15" d="M 223.03125 212.820312 C 222.90625 213.097656 222.585938 213.222656 222.308594 213.097656 C 222.03125 212.980469 221.902344 212.652344 222.027344 212.375 L 222.933594 210.328125 C 223.269531 210.488281 223.601562 210.660156 223.910156 210.839844 L 223.03125 212.820312 " fill-opacity="1" fill-rule="nonzero"/><path fill="#a33b2b" d="M 202.84375 203.3125 C 202.84375 203.628906 203.097656 203.882812 203.414062 203.882812 L 218.105469 203.882812 C 218.421875 203.882812 218.675781 203.628906 218.675781 203.3125 C 218.675781 203 218.421875 202.742188 218.105469 202.742188 L 203.414062 202.742188 C 203.097656 202.742188 202.84375 203 202.84375 203.3125 " fill-opacity="1" fill-rule="nonzero"/><path fill="#47170f" d="M 225.789062 152.359375 C 225.789062 155.050781 223.605469 157.234375 220.90625 157.234375 C 218.207031 157.234375 216.027344 155.050781 216.027344 152.359375 C 216.027344 149.667969 218.207031 147.484375 220.90625 147.484375 C 223.605469 147.484375 225.789062 149.667969 225.789062 152.359375 " fill-opacity="1" fill-rule="nonzero"/><path fill="#f8a269" d="M 218.265625 147.851562 C 217.125 149.726562 215.453125 150.636719 213.574219 149.5 L 168.238281 130.5625 C 166.367188 129.421875 165.003906 127.871094 166.476562 124.492188 L 166.699219 123.992188 C 168.488281 120.859375 171.644531 120.800781 173.523438 121.9375 L 218.03125 144.402344 C 219.910156 145.542969 219.402344 145.980469 218.265625 147.851562 " fill-opacity="1" fill-rule="nonzero"/><path fill="#f8a269" d="M 218.03125 144.402344 C 218.03125 144.402344 226.765625 146.515625 226.953125 151.316406 C 226.980469 152.0625 227.042969 154.050781 225.757812 154.050781 C 225.757812 154.050781 224.3125 154.113281 224.058594 151.796875 C 223.8125 149.484375 221.234375 149.082031 219.527344 149.082031 C 217.8125 149.078125 216.402344 151.273438 213.574219 149.5 L 218.03125 144.402344 " fill-opacity="1" fill-rule="nonzero"/><path fill="#a31f1c" d="M 166.195312 123.496094 C 164.621094 126.464844 166.128906 130.339844 169.566406 132.171875 L 175.207031 135.144531 L 180.917969 124.351562 L 175.277344 121.375 C 171.824219 119.578125 167.765625 120.519531 166.195312 123.496094 " fill-opacity="1" fill-rule="nonzero"/><path fill="#f9a672" d="M 180.6875 106.542969 L 170.917969 105.167969 C 170.917969 105.167969 169.542969 113.960938 169.527344 114.308594 L 169.53125 114.367188 L 169.527344 114.398438 L 169.53125 114.398438 C 169.449219 117.140625 171.542969 119.445312 174.25 119.574219 C 176.992188 119.699219 179.316406 117.550781 179.441406 114.777344 L 179.441406 114.703125 L 180.6875 106.542969 " fill-opacity="1" fill-rule="nonzero"/><path fill="#e58148" d="M 169.648438 113.449219 C 172.867188 111.429688 174.921875 111.585938 179.8125 112.273438 L 180.132812 110.191406 L 170.355469 108.789062 L 169.648438 113.449219 " fill-opacity="1" fill-rule="nonzero"/><path fill="#f9a672" d="M 190.613281 95.550781 C 190.382812 95.457031 190.117188 95.507812 189.84375 95.671875 L 190.375 91.886719 C 191.308594 85.242188 189.054688 79.667969 182.644531 78.769531 L 176.191406 77.863281 C 169.777344 76.964844 166.074219 81.703125 165.136719 88.351562 L 164.605469 92.136719 C 164.375 91.898438 164.128906 91.773438 163.890625 91.804688 C 163.171875 91.890625 162.722656 93.234375 162.890625 94.8125 C 163.007812 95.933594 163.398438 96.859375 163.875 97.273438 C 163.875 97.273438 167.28125 109.867188 174.660156 110.902344 C 183.921875 112.203125 189.117188 100.808594 189.117188 100.808594 C 189.6875 100.539062 190.316406 99.753906 190.734375 98.714844 C 191.328125 97.25 191.273438 95.828125 190.613281 95.550781 " fill-opacity="1" fill-rule="nonzero"/><path fill="#b1221f" d="M 169.589844 113.78125 Z M 179.738281 114.097656 C 179.429688 114.097656 179.152344 114.363281 179.117188 114.691406 C 178.871094 117.242188 176.617188 119.203125 174.046875 118.925781 C 171.542969 118.683594 169.679688 116.414062 169.886719 113.871094 L 169.890625 113.785156 C 169.921875 113.453125 169.683594 113.179688 169.339844 113.148438 L 169.277344 113.140625 C 168.964844 113.140625 168.695312 113.398438 168.667969 113.695312 C 168.65625 113.753906 168.652344 113.816406 168.65625 113.824219 C 168.429688 117.007812 170.789062 119.84375 173.921875 120.148438 C 174.070312 120.167969 174.21875 120.175781 174.367188 120.175781 L 174.488281 120.179688 C 177.523438 120.179688 180.042969 117.871094 180.34375 114.796875 L 180.347656 114.722656 C 180.371094 114.394531 180.140625 114.132812 179.738281 114.097656 " fill-opacity="1" fill-rule="nonzero"/><path fill="#552019" d="M 188.859375 86.949219 C 188.859375 86.949219 185.015625 95.519531 187.402344 98.210938 C 187.402344 98.210938 193.128906 94.441406 190.871094 85.671875 L 188.859375 86.949219 " fill-opacity="1" fill-rule="nonzero"/><path fill="#552019" d="M 169.585938 83.625 C 169.585938 83.625 167.75 94.085938 164.589844 95.824219 C 164.589844 95.824219 163.089844 87.226562 168.699219 81.234375 L 169.585938 83.625 " fill-opacity="1" fill-rule="nonzero"/><path fill="#552019" d="M 190.871094 85.671875 C 190.871094 85.671875 188.734375 78.273438 180.222656 77.460938 C 171.710938 76.644531 166.792969 77.039062 164.675781 89.269531 C 163.515625 95.941406 174.71875 90.742188 178.851562 88.824219 C 178.851562 88.824219 176.566406 91.300781 174.003906 91.59375 C 174.003906 91.59375 184.925781 94.175781 190.871094 85.671875 " fill-opacity="1" fill-rule="nonzero"/><path fill="#47170f" d="M 176.046875 111.453125 C 175.5625 111.453125 175.050781 111.417969 174.539062 111.34375 C 166.957031 110.285156 163.527344 97.914062 163.386719 97.390625 C 163.320312 97.152344 163.464844 96.90625 163.707031 96.839844 C 163.9375 96.777344 164.1875 96.917969 164.25 97.15625 C 164.285156 97.277344 167.667969 109.476562 174.664062 110.460938 C 183.480469 111.707031 188.601562 100.734375 188.648438 100.625 C 188.75 100.398438 189.023438 100.300781 189.246094 100.398438 C 189.46875 100.503906 189.566406 100.769531 189.46875 100.996094 C 189.414062 101.101562 184.597656 111.453125 176.046875 111.453125 " fill-opacity="1" fill-rule="nonzero"/><path fill="#ef2f2c" d="M 176.355469 75.761719 C 167.394531 76.519531 160.742188 84.382812 161.5 93.328125 C 161.730469 96.039062 162.222656 99.394531 163.589844 101.535156 C 163.589844 101.535156 164.171875 102.550781 164.945312 101.976562 C 165.617188 101.476562 165.078125 100.75 165.078125 100.75 C 164.609375 99.597656 163.992188 97.835938 163.882812 96.53125 C 163.292969 89.5 168.542969 83.699219 175.589844 83.105469 C 182.636719 82.507812 188.835938 87.726562 189.433594 94.757812 C 189.738281 98.390625 188.832031 102.144531 186.230469 104.3125 C 186.023438 104.484375 185.605469 104.695312 186.164062 105.375 C 186.535156 105.828125 187.042969 105.28125 187.261719 105.097656 C 191.464844 101.527344 194.460938 96.472656 193.964844 90.585938 C 193.203125 81.640625 185.320312 75.007812 176.355469 75.761719 " fill-opacity="1" fill-rule="nonzero"/><path fill="#881916" d="M 186.058594 104.925781 C 185.867188 104.941406 185.671875 104.867188 185.542969 104.714844 C 185.332031 104.460938 185.363281 104.085938 185.621094 103.871094 C 187.8125 102.042969 188.933594 98.664062 188.609375 94.828125 C 188.039062 88.136719 182.125 83.152344 175.417969 83.71875 C 168.59375 84.292969 163.695312 89.910156 164.25 96.5 C 164.371094 97.871094 165.09375 99.785156 165.402344 100.546875 C 165.53125 100.851562 165.382812 101.195312 165.078125 101.320312 C 164.765625 101.445312 164.421875 101.296875 164.300781 100.992188 C 163.890625 99.984375 163.183594 98.078125 163.0625 96.597656 C 162.445312 89.34375 167.824219 83.164062 175.3125 82.53125 C 182.679688 81.90625 189.179688 87.378906 189.804688 94.726562 C 190.164062 99.015625 188.917969 102.679688 186.386719 104.785156 C 186.289062 104.867188 186.167969 104.914062 186.058594 104.925781 " fill-opacity="1" fill-rule="nonzero"/><g fill="#f27c22" fill-opacity="1"><g transform="translate(118.277083, 292.428563)"><g><path d="M 1.984375 0 L 1.984375 -23.09375 L 17.828125 -23.09375 L 17.828125 -17.5625 L 8.328125 -17.5625 L 8.328125 -13.734375 L 16.078125 -13.734375 L 16.078125 -8.59375 L 8.328125 -8.59375 L 8.328125 0 Z M 1.984375 0 "/></g></g></g><g fill="#f27c22" fill-opacity="1"><g transform="translate(136.459121, 292.428563)"><g><path d="M 11.78125 0.1875 C 10.125 0.1875 8.617188 -0.144531 7.265625 -0.8125 C 5.910156 -1.488281 4.75 -2.375 3.78125 -3.46875 C 2.820312 -4.5625 2.078125 -5.8125 1.546875 -7.21875 C 1.015625 -8.632812 0.75 -10.085938 0.75 -11.578125 C 0.75 -13.097656 1.023438 -14.5625 1.578125 -15.96875 C 2.128906 -17.382812 2.90625 -18.628906 3.90625 -19.703125 C 4.90625 -20.773438 6.082031 -21.628906 7.4375 -22.265625 C 8.789062 -22.910156 10.28125 -23.234375 11.90625 -23.234375 C 13.550781 -23.234375 15.050781 -22.894531 16.40625 -22.21875 C 17.757812 -21.539062 18.921875 -20.648438 19.890625 -19.546875 C 20.859375 -18.441406 21.601562 -17.179688 22.125 -15.765625 C 22.644531 -14.359375 22.90625 -12.921875 22.90625 -11.453125 C 22.90625 -9.929688 22.628906 -8.472656 22.078125 -7.078125 C 21.523438 -5.679688 20.757812 -4.441406 19.78125 -3.359375 C 18.800781 -2.285156 17.628906 -1.425781 16.265625 -0.78125 C 14.898438 -0.132812 13.40625 0.1875 11.78125 0.1875 Z M 7.1875 -11.515625 C 7.1875 -10.734375 7.28125 -9.976562 7.46875 -9.25 C 7.65625 -8.53125 7.941406 -7.882812 8.328125 -7.3125 C 8.710938 -6.75 9.195312 -6.296875 9.78125 -5.953125 C 10.375 -5.609375 11.0625 -5.4375 11.84375 -5.4375 C 12.644531 -5.4375 13.335938 -5.613281 13.921875 -5.96875 C 14.503906 -6.320312 14.976562 -6.785156 15.34375 -7.359375 C 15.71875 -7.941406 15.992188 -8.597656 16.171875 -9.328125 C 16.359375 -10.066406 16.453125 -10.816406 16.453125 -11.578125 C 16.453125 -12.359375 16.351562 -13.113281 16.15625 -13.84375 C 15.96875 -14.570312 15.679688 -15.210938 15.296875 -15.765625 C 14.921875 -16.316406 14.441406 -16.757812 13.859375 -17.09375 C 13.273438 -17.425781 12.59375 -17.59375 11.8125 -17.59375 C 11.007812 -17.59375 10.316406 -17.421875 9.734375 -17.078125 C 9.160156 -16.734375 8.6875 -16.269531 8.3125 -15.6875 C 7.9375 -15.113281 7.65625 -14.460938 7.46875 -13.734375 C 7.28125 -13.015625 7.1875 -12.273438 7.1875 -11.515625 Z M 7.1875 -11.515625 "/></g></g></g><g fill="#f27c22" fill-opacity="1"><g transform="translate(160.105544, 292.428563)"><g><path d="M 11.78125 0.1875 C 10.125 0.1875 8.617188 -0.144531 7.265625 -0.8125 C 5.910156 -1.488281 4.75 -2.375 3.78125 -3.46875 C 2.820312 -4.5625 2.078125 -5.8125 1.546875 -7.21875 C 1.015625 -8.632812 0.75 -10.085938 0.75 -11.578125 C 0.75 -13.097656 1.023438 -14.5625 1.578125 -15.96875 C 2.128906 -17.382812 2.90625 -18.628906 3.90625 -19.703125 C 4.90625 -20.773438 6.082031 -21.628906 7.4375 -22.265625 C 8.789062 -22.910156 10.28125 -23.234375 11.90625 -23.234375 C 13.550781 -23.234375 15.050781 -22.894531 16.40625 -22.21875 C 17.757812 -21.539062 18.921875 -20.648438 19.890625 -19.546875 C 20.859375 -18.441406 21.601562 -17.179688 22.125 -15.765625 C 22.644531 -14.359375 22.90625 -12.921875 22.90625 -11.453125 C 22.90625 -9.929688 22.628906 -8.472656 22.078125 -7.078125 C 21.523438 -5.679688 20.757812 -4.441406 19.78125 -3.359375 C 18.800781 -2.285156 17.628906 -1.425781 16.265625 -0.78125 C 14.898438 -0.132812 13.40625 0.1875 11.78125 0.1875 Z M 7.1875 -11.515625 C 7.1875 -10.734375 7.28125 -9.976562 7.46875 -9.25 C 7.65625 -8.53125 7.941406 -7.882812 8.328125 -7.3125 C 8.710938 -6.75 9.195312 -6.296875 9.78125 -5.953125 C 10.375 -5.609375 11.0625 -5.4375 11.84375 -5.4375 C 12.644531 -5.4375 13.335938 -5.613281 13.921875 -5.96875 C 14.503906 -6.320312 14.976562 -6.785156 15.34375 -7.359375 C 15.71875 -7.941406 15.992188 -8.597656 16.171875 -9.328125 C 16.359375 -10.066406 16.453125 -10.816406 16.453125 -11.578125 C 16.453125 -12.359375 16.351562 -13.113281 16.15625 -13.84375 C 15.96875 -14.570312 15.679688 -15.210938 15.296875 -15.765625 C 14.921875 -16.316406 14.441406 -16.757812 13.859375 -17.09375 C 13.273438 -17.425781 12.59375 -17.59375 11.8125 -17.59375 C 11.007812 -17.59375 10.316406 -17.421875 9.734375 -17.078125 C 9.160156 -16.734375 8.6875 -16.269531 8.3125 -15.6875 C 7.9375 -15.113281 7.65625 -14.460938 7.46875 -13.734375 C 7.28125 -13.015625 7.1875 -12.273438 7.1875 -11.515625 Z M 7.1875 -11.515625 "/></g></g></g><g fill="#f27c22" fill-opacity="1"><g transform="translate(183.751967, 292.428563)"><g><path d="M 1.984375 0 L 1.984375 -23.09375 L 10.859375 -23.09375 C 12.773438 -23.09375 14.457031 -22.789062 15.90625 -22.1875 C 17.363281 -21.582031 18.578125 -20.757812 19.546875 -19.71875 C 20.523438 -18.675781 21.265625 -17.453125 21.765625 -16.046875 C 22.265625 -14.648438 22.515625 -13.160156 22.515625 -11.578125 C 22.515625 -9.828125 22.238281 -8.238281 21.6875 -6.8125 C 21.132812 -5.394531 20.347656 -4.179688 19.328125 -3.171875 C 18.304688 -2.160156 17.078125 -1.378906 15.640625 -0.828125 C 14.210938 -0.273438 12.617188 0 10.859375 0 Z M 16.078125 -11.578125 C 16.078125 -12.472656 15.957031 -13.285156 15.71875 -14.015625 C 15.476562 -14.753906 15.132812 -15.382812 14.6875 -15.90625 C 14.238281 -16.425781 13.6875 -16.832031 13.03125 -17.125 C 12.382812 -17.414062 11.660156 -17.5625 10.859375 -17.5625 L 8.328125 -17.5625 L 8.328125 -5.53125 L 10.859375 -5.53125 C 11.691406 -5.53125 12.429688 -5.679688 13.078125 -5.984375 C 13.722656 -6.285156 14.269531 -6.707031 14.71875 -7.25 C 15.164062 -7.789062 15.503906 -8.429688 15.734375 -9.171875 C 15.960938 -9.910156 16.078125 -10.710938 16.078125 -11.578125 Z M 16.078125 -11.578125 "/></g></g></g><g fill="#f27c22" fill-opacity="1"><g transform="translate(207.073122, 292.428563)"><g><path d="M -0.265625 0 L 8.359375 -23.09375 L 13.5 -23.09375 L 22.09375 0 L 15.390625 0 L 13.984375 -4.515625 L 7.84375 -4.515625 L 6.46875 0 Z M 10.9375 -16.5 L 8.78125 -8.75 L 12.984375 -8.75 Z M 10.9375 -16.5 "/></g></g></g><g fill="#f27c22" fill-opacity="1"><g transform="translate(228.898091, 292.428563)"><g><path d="M 19.453125 0 L 19.453125 -12.171875 L 15.578125 -3.609375 L 12.203125 -3.609375 L 8.328125 -12.171875 L 8.328125 0 L 1.984375 0 L 1.984375 -23.09375 L 8.90625 -23.09375 L 13.890625 -12.234375 L 18.90625 -23.09375 L 25.796875 -23.09375 L 25.796875 0 Z M 19.453125 0 "/></g></g></g></svg>